<?xml version="1.0" encoding="iso-8859-1"?>
<!-- Generator: Adobe Illustrator 19.0.0, SVG Export Plug-In . SVG Version: 6.00 Build 0)  -->
<svg fill="white" version="1.1" id="Capa_1" xmlns="http://www.w3.org/2000/svg" xmlns:xlink="http://www.w3.org/1999/xlink" x="0px" y="0px"
	 viewBox="0 0 490 490" style="enable-background:new 0 0 490 490;" xml:space="preserve">
<g id="line_21_">
	<path d="M15.175,428.75H474.81c8.361,0,15.19-6.829,15.19-15.175V76.425c0-8.345-6.829-15.175-15.175-15.175H15.175
		C6.829,61.25,0,68.079,0,76.425V413.56C0,421.921,6.829,428.75,15.175,428.75z M30.625,91.875h428.75v306.25H30.625V91.875z"/>
	<circle cx="76.562" cy="122.546" r="15.312"/>
	<circle cx="122.821" cy="122.546" r="15.312"/>
	<circle cx="169.096" cy="122.546" r="15.312"/>
	<rect x="61.25" y="153.125" width="367.5" height="30.625"/>
	<path d="M178.498,214.252c-42.278,0-76.562,34.285-76.562,76.563c0,42.278,34.285,76.563,76.562,76.563
		s76.563-34.285,76.563-76.563C255.06,248.522,220.776,214.252,178.498,214.252z M178.498,352.065
		c-33.779,0-61.25-27.471-61.25-61.25c0-32.049,24.822-58.126,56.212-60.745v63.424h66.012
		C238.033,326.003,211.358,352.065,178.498,352.065z M188.772,278.182v-47.591c24.745,4.226,44.498,23.168,49.628,47.591H188.772z"
		/>
	<rect x="285.302" y="315.499" width="102.762" height="15.312"/>
	<rect x="285.302" y="235.644" width="102.762" height="15.313"/>
	<rect x="285.302" y="276.773" width="102.762" height="15.313"/>
</g>
<g>
</g>
<g>
</g>
<g>
</g>
<g>
</g>
<g>
</g>
<g>
</g>
<g>
</g>
<g>
</g>
<g>
</g>
<g>
</g>
<g>
</g>
<g>
</g>
<g>
</g>
<g>
</g>
<g>
</g>
</svg>
